# xmcd
#
# Track frame offsets:
#	150
#	11808
#	27157
#	37400
#	49192
#	64828
#	79718
#	98267
#	113619
#	131199
#
# Disc length: 1921 seconds
# Revision: 0
# Processed by: cddbd v1.5.2PL0 Copyright (c) Steve Scherf et al.
# Submitted via: dBpowerAMP V12.0
#
DISCID=7f077f0a
DTITLE=Hoyt Axton - A Rusty Old Halo
DYEAR=1955
DGENRE=Country
TTITLE0=A Rusty Old Halo
TTITLE1=Della And The Dealer
TTITLE2=The Hotel Ritz
TTITLE3=So Hard To Give It All Up
TTITLE4=Evangelina
TTITLE5=Torpedo
TTITLE6=Viva Pancho Villa
TTITLE7=Wild Bull Rider
TTITLE8=In A Young Girl's Mind
TTITLE9=Gotta Keep Rollin'
EXTD=
EXTT0=
EXTT1=
EXTT2=
EXTT3=
EXTT4=
EXTT5=
EXTT6=
EXTT7=
EXTT8=
EXTT9=
PLAYORDER=
